
        <svg xmlns="http://www.w3.org/2000/svg" xmlns:xlink="http://www.w3.org/1999/xlink" version="1.1" width="3181.8181818181824" 
        height="1254.5454545454545" viewBox="0 0 3181.8181818181824 1254.5454545454545">
			
			<g transform="scale(9.090909090909092) translate(10, 10)">
				<defs id="SvgjsDefs1499"></defs><g id="SvgjsG1500" featureKey="symbolContainer" transform="matrix(1,0,0,1,0,0)" fill="#f8b500">    <rect width="110" height="118"></rect></g><g id="SvgjsG1501" featureKey="monogramFeature-0" transform="matrix(2.018454422837849,0,0,2.018454422837849,16.730105990944605,-19.03114280101294)" fill="#ffffff"><path d="M19.8 60.6 c-10.98 0 -18.18 -5.58 -18.18 -10.92 c0 -2.52 1.32 -4.26 4.32 -4.26 c6.48 0.06 5.28 11.22 14.28 11.22 c3.48 0 5.7 -1.86 5.7 -4.98 c0 -11.7 -23.52 -4.26 -23.58 -21.84 c0 -7.62 6.36 -12.96 16.26 -12.96 c9.96 0 17.28 5.28 17.22 10.74 c0 2.64 -1.5 4.38 -4.56 4.38 c-7.26 0 -5.4 -11.22 -12.84 -11.22 c-3.78 0 -5.58 2.34 -5.58 5.28 c0 12.84 23.46 5.34 23.46 22.14 c0 7.92 -7.62 12.42 -16.5 12.42 z"></path></g><g id="SvgjsG1502" featureKey="nameFeature-0" transform="matrix(0.8781173376521013,0,0,0.8781173376521013,128.77063522482428,35.884087868277575)" fill="#393e46"><path d="M11 11.52 c4.36 0 7.56 2.88 8.76 5.88 l-2.52 1.36 c-1.28 -2.56 -3.32 -4.24 -6.24 -4.24 c-3.08 0 -5.2 1.76 -5.2 4.2 c0 2.28 1.44 3.72 4.48 4.88 l2.04 0.76 c5.04 1.88 8.2 4.04 8.2 8.48 c0 4.8 -4.6 7.76 -9.36 7.76 s-8.68 -2.88 -9.76 -6.88 l2.68 -1.28 c0.96 2.96 3.48 5.12 7.08 5.12 c3.2 0 5.92 -1.84 5.92 -4.68 c0 -3.2 -2.24 -4.4 -5.56 -5.68 l-2.08 -0.8 c-4.24 -1.6 -6.96 -3.8 -6.96 -7.76 c0 -4.08 3.6 -7.12 8.52 -7.12 z M39.28 40 l-8.96 -9.28 l-2.84 3 l0 6.28 l-3.28 0 l0 -6.84 l0 -21.44 l3.28 0 l0 17.96 l9.84 -10.48 l3.96 0 l-8.88 9.32 l10.76 11.48 l-3.88 0 z M48.720000000000006 11.719999999999999 l0 2.92 l-3.28 0 l0 -2.92 l3.28 0 z M48.720000000000006 19.2 l0 20.8 l-3.28 0 l0 -20.8 l3.28 0 z M56.56 11.719999999999999 l0 28.28 l-3.28 0 l0 -28.28 l3.28 0 z M64.4 11.719999999999999 l0 28.28 l-3.28 0 l0 -28.28 l3.28 0 z M88.60000000000001 12 l3.32 0 l0 28 l-2.56 0 l-16.96 -21.92 l0 21.92 l-3.32 0 l0 -28 l2.56 0 l16.96 21.96 l0 -21.96 z M106.36000000000001 18.84 c4.72 0 11.04 3.6 10.2 11.96 l-17.56 0 c0.52 4.56 4.08 6.8 7.84 6.8 c2.88 0 4.72 -0.8 6.28 -2.32 l1.92 1.76 c-1.88 2.24 -4.6 3.36 -8.24 3.36 c-5.36 0 -11.08 -3.6 -11.08 -10.76 c0 -7.2 5.92 -10.8 10.64 -10.8 z M106.36000000000001 21.68 c-3.08 0 -6.76 2.2 -7.36 6.68 l14.68 0 c-0.4 -4.48 -4.2 -6.68 -7.32 -6.68 z M129.76000000000002 21.96 l-4.4 0 l0 13.4 c0 1.24 0.48 2 1.68 2 c1.04 0 1.8 -0.24 2.68 -0.64 l0 2.8 c-0.88 0.44 -1.92 0.72 -3.56 0.72 c-2.12 0 -4.04 -0.96 -4.04 -4.6 l0 -13.68 l-2.88 0 l0 -2.76 l2.88 0 l0 -4.88 l3.24 0 l0 4.88 l4.4 0 l0 2.76 z M164.07999999999998 19.16 l3.24 0 l-7.96 20.84 l-2.84 0 l-6.76 -17.08 l-6.76 17.08 l-2.84 0 l-8 -20.84 l3.28 0 l6.2 16.56 l6.64 -16.56 l2.96 0 l6.64 16.56 z M180.35999999999999 18.84 c4.72 0 10.68 3.6 10.68 10.8 s-5.96 10.76 -10.68 10.76 s-10.64 -3.56 -10.64 -10.76 s5.92 -10.8 10.64 -10.8 z M180.35999999999999 21.76 c-3.36 0 -7.44 2.6 -7.44 7.88 c0 5.24 4.08 7.84 7.44 7.84 c3.4 0 7.48 -2.6 7.48 -7.84 c0 -5.28 -4.08 -7.88 -7.48 -7.88 z M205.72 18.88 c0.36 0 0.68 0 1 0.08 l0 3.08 c-0.32 -0.08 -0.68 -0.08 -0.96 -0.08 c-3.96 0 -7.2 2.84 -7.76 7.52 l0 10.52 l-3.28 0 l0 -20.8 l3.28 0 l0 5.48 c0.76 -3.08 3.6 -5.8 7.72 -5.8 z M225.27999999999997 40 l-8.96 -9.28 l-2.84 3 l0 6.28 l-3.28 0 l0 -6.84 l0 -21.44 l3.28 0 l0 17.96 l9.84 -10.48 l3.96 0 l-8.88 9.32 l10.76 11.48 l-3.88 0 z"></path></g>
			</g>
		</svg>
	